<?xml version="1.0" encoding="UTF-8"?>
<svg width="1763px" height="1357px" viewBox="0 0 1763 1357" version="1.1" xmlns="http://www.w3.org/2000/svg" xmlns:xlink="http://www.w3.org/1999/xlink">
    <!-- Generator: Sketch 51.3 (57544) - http://www.bohemiancoding.com/sketch -->
    <title>Group 2</title>
    <desc>Created with Sketch.</desc>
    <defs></defs>
    <g id="Page-1" stroke="none" stroke-width="1" fill="none" fill-rule="evenodd">
        <g id="Desktop" transform="translate(-911.000000, -1682.000000)">
            <g id="Group-3" transform="translate(60.000000, 0.000000)">
                <g id="Group-2" transform="translate(851.000000, 1682.000000)">
                    <rect id="Rectangle-15" stroke="#979797" fill="#FFFFFF" x="0.5" y="0.5" width="1762" height="1356" rx="120"></rect>
                    <g id="Group" transform="translate(231.000000, 175.000000)" fill="#0C4FCB">
                        <path d="M114,753.999996 L114,252.000004 C124.984465,255.730013 136.756242,257.752844 149,257.752844 C161.243758,257.752844 173.015535,255.730013 184,252 L184,753.999996 C173.015535,750.269987 161.243758,748.247156 149,748.247156 C136.756242,748.247156 124.984465,750.269987 114,754 Z" id="Combined-Shape"></path>
                        <path d="M598.757214,450.317422 C588.642929,431.707927 573.292073,416.357071 554.682578,406.242786 L552,403.560209 L758.560209,197 C769.193984,218.387131 786.612869,235.806016 808,246.439791 L601.439791,453 L598.757216,450.317425 Z" id="Combined-Shape"></path>
                        <path d="M243.757214,450.317422 C233.642929,431.707927 218.292073,416.357071 199.682578,406.242786 L197,403.560209 L403.560209,197 C414.193984,218.387131 431.612869,235.806016 453,246.439791 L246.439791,453 L243.757216,450.317425 Z" id="Combined-Shape-Copy-6" transform="translate(325.000000, 325.000000) scale(-1, 1) translate(-325.000000, -325.000000) "></path>
                        <path d="M148.5,297 C66.4857147,297 0,230.514285 0,148.5 C0,66.4857147 66.4857147,0 148.5,0 C230.514285,0 297,66.4857147 297,148.5 C297,230.514285 230.514285,297 148.5,297 Z M148.5,227.026178 C191.868811,227.026178 227.026178,191.868811 227.026178,148.5 C227.026178,105.131189 191.868811,69.973822 148.5,69.973822 C105.131189,69.973822 69.973822,105.131189 69.973822,148.5 C69.973822,191.868811 105.131189,227.026178 148.5,227.026178 Z" id="Combined-Shape"></path>
                        <path d="M502.5,651 C420.485715,651 354,584.514285 354,502.5 C354,420.485715 420.485715,354 502.5,354 C584.514285,354 651,420.485715 651,502.5 C651,584.514285 584.514285,651 502.5,651 Z M502.5,581.026178 C545.868811,581.026178 581.026178,545.868811 581.026178,502.5 C581.026178,459.131189 545.868811,423.973822 502.5,423.973822 C459.131189,423.973822 423.973822,459.131189 423.973822,502.5 C423.973822,545.868811 459.131189,581.026178 502.5,581.026178 Z" id="Combined-Shape-Copy-4"></path>
                        <path d="M856.5,297 C774.485715,297 708,230.514285 708,148.5 C708,66.4857147 774.485715,0 856.5,0 C938.514285,0 1005,66.4857147 1005,148.5 C1005,230.514285 938.514285,297 856.5,297 Z M856.5,227.026178 C899.868811,227.026178 935.026178,191.868811 935.026178,148.5 C935.026178,105.131189 899.868811,69.973822 856.5,69.973822 C813.131189,69.973822 777.973822,105.131189 777.973822,148.5 C777.973822,191.868811 813.131189,227.026178 856.5,227.026178 Z" id="Combined-Shape-Copy"></path>
                        <path d="M152.5,997 C72.6948537,997 8,932.305146 8,852.5 C8,772.694854 72.6948537,708 152.5,708 C232.305146,708 297,772.694854 297,852.5 C297,932.305146 232.305146,997 152.5,997 Z M152.5,928.910995 C194.700627,928.910995 228.910995,894.700627 228.910995,852.5 C228.910995,810.299373 194.700627,776.089005 152.5,776.089005 C110.299373,776.089005 76.0890052,810.299373 76.0890052,852.5 C76.0890052,894.700627 110.299373,928.910995 152.5,928.910995 Z" id="Combined-Shape-Copy-3"></path>
                        <path d="M856.5,1005 C774.485715,1005 708,938.514285 708,856.5 C708,774.485715 774.485715,708 856.5,708 C938.514285,708 1005,774.485715 1005,856.5 C1005,938.514285 938.514285,1005 856.5,1005 Z M856.5,935.026178 C899.868811,935.026178 935.026178,899.868811 935.026178,856.5 C935.026178,813.131189 899.868811,777.973822 856.5,777.973822 C813.131189,777.973822 777.973822,813.131189 777.973822,856.5 C777.973822,899.868811 813.131189,935.026178 856.5,935.026178 Z" id="Combined-Shape-Copy-2"></path>
                        <path d="M970,114 C1184.83877,114 1359,288.161232 1359,503 C1359,717.838768 1184.83877,892 970,892 L970,821.98 C1146.16779,821.98 1288.98,679.167789 1288.98,503 C1288.98,326.832211 1146.16779,184.02 970,184.02 L970,114 Z" id="Combined-Shape"></path>
                    </g>
                </g>
            </g>
        </g>
    </g>
</svg>