<svg xmlns="http://www.w3.org/2000/svg" xmlns:xlink="http://www.w3.org/1999/xlink" width="95" height="97.538" viewBox="0 0 95 97.538"><defs><linearGradient id="a" x1="0.024" y1="0.5" x2="0.97" y2="0.5" gradientUnits="objectBoundingBox"><stop offset="0" stop-color="#fff"/><stop offset="0.49"/><stop offset="1" stop-color="#fff"/></linearGradient></defs><g transform="translate(-615.449 -526.515)"><g transform="translate(630.533 527.053)"><g transform="translate(0 0)"><path d="M7.523,279.568c.122,2.505,2.624,1.346,3.758.563,1.076-.744,1.391-.126,1.485-1.593a24.051,24.051,0,0,0,.118-2.9,7.1,7.1,0,0,0-4.731,1.209c-.687.5-1.976,2.093-.63,2.718" transform="translate(-6.935 -233.859)" fill="none" stroke="#000" stroke-linecap="round" stroke-width="1" fill-rule="evenodd"/><path d="M10.634,297.526a1.972,1.972,0,0,0,1-.561" transform="translate(-10.046 -251.817)" fill="none" stroke="#000" stroke-linecap="round" stroke-width="1" fill-rule="evenodd"/><path d="M22.578,54.286c-9.591-2.7-2.459-14.9,5.242-9.88Z" transform="translate(-16.206 -38.423)" fill="none" stroke="#000" stroke-linecap="round" stroke-width="1" fill-rule="evenodd"/><path d="M314.9,37.869c7.591-5.332,14.452,6.7,5.629,9.725Z" transform="translate(-265.911 -32.801)" fill="none" stroke="#000" stroke-linecap="round" stroke-width="1" fill-rule="evenodd"/><path d="M302.88,494.343c1.928,1.193,5.453,4.8,2.56,6.55-2.779,2.545-4.335-2.793-6.775-3.533A6.749,6.749,0,0,1,302.88,494.343Z" transform="translate(-252.263 -417.8)" fill="#f6d2a2" stroke="#000" stroke-linecap="round" stroke-width="1" fill-rule="evenodd"/><path d="M334.444,522.118a8.211,8.211,0,0,0-1.289-2.535" transform="translate(-281.266 -439.026)" fill="none" stroke="#000" stroke-linecap="round" stroke-width="1" fill-rule="evenodd"/><path d="M60.1,502.121c-2.263.35-3.537,2.392-5.424,3.429-1.778,1.06-2.458-.339-2.618-.624-.279-.127-.255.118-.685-.315-1.648-2.6,1.717-4.5,3.47-5.795C57.283,498.324,58.813,500.44,60.1,502.121Z" transform="translate(-43.932 -421.502)" fill="#f6d2a2" stroke="#000" stroke-linecap="round" stroke-width="1" fill-rule="evenodd"/><path d="M58.019,524.429c.086-.991.872-1.655,1.247-2.494" transform="translate(-49.894 -441.004)" fill="none" stroke="#000" stroke-linecap="round" stroke-width="1" fill-rule="evenodd"/><path d="M40.513,70.11c-1.265-.669-2.194-1.578-1.42-3.042.717-1.355,2.048-1.208,3.313-.538Z" transform="translate(-33.741 -57.617)" fill-rule="evenodd"/><path d="M327.7,62.11c1.265-.669,2.194-1.578,1.42-3.042-.717-1.355-2.048-1.208-3.313-.538Z" transform="translate(-275.091 -50.89)" fill-rule="evenodd"/><path d="M364.052,277.568c-.122,2.505-2.624,1.346-3.758.563-1.076-.744-1.391-.125-1.485-1.593a24.049,24.049,0,0,1-.118-2.9,7.1,7.1,0,0,1,4.731,1.209c.687.5,1.976,2.093.63,2.718" transform="translate(-302.728 -232.177)" fill="none" stroke="#000" stroke-linecap="round" stroke-width="1" fill-rule="evenodd"/><path d="M387.2,295.526a1.971,1.971,0,0,1-1-.561" transform="translate(-325.877 -250.135)" fill="#c6b198" stroke="#000" stroke-linecap="round" stroke-width="1" fill-rule="evenodd"/><g transform="translate(4.872 0)"><path d="M62.686,13.124c9.6,0,18.6,1.373,23.295,10.6,4.212,10.34,2.714,21.49,3.356,32.417.552,9.383,1.775,20.224-2.578,28.919-4.579,9.148-16.022,11.449-25.45,11.112-7.405-.265-16.35-2.681-20.53-9.446-4.9-7.937-2.582-19.739-2.226-28.571.422-10.462-2.834-20.955.6-31.192,3.565-10.619,13.181-13.019,23.529-13.838" transform="translate(-37.563 -13.124)" fill="#fff" stroke="#000" stroke-linecap="round" stroke-width="1" fill-rule="evenodd"/></g><path d="M206.08,49.809c1.724,10.021,18.1,7.372,15.752-2.735-2.11-9.063-16.325-6.555-15.752,2.735" transform="translate(-174.39 -36.919)" fill="#fff" stroke="#000" stroke-linecap="round" stroke-width="1" fill-rule="evenodd"/><path d="M82.132,55.915c2.234,8.724,16.2,6.491,15.676-2.261C97.177,43.173,80,45.2,82.132,55.915" transform="translate(-70.016 -41.404)" fill="#fff" stroke="#000" stroke-linecap="round" stroke-width="1" fill-rule="evenodd"/><path d="M201.076,164.708a22.609,22.609,0,0,1,.05,4.152c-.333.629-.985.7-1.548.949a2.277,2.277,0,0,1-1.744-1.36,29.485,29.485,0,0,1,.125-4.7Z" transform="translate(-167.409 -139.793)" fill="#fff" stroke="#000" stroke-linecap="round" stroke-width="1" fill-rule="evenodd"/><g transform="translate(13.609 10.533)"><ellipse cx="2.359" cy="2.555" rx="2.359" ry="2.555"/><ellipse cx="0.556" cy="0.649" rx="0.556" ry="0.649" transform="translate(2.875 2.482)" fill="#fff"/></g><g transform="translate(33.411 9.896)"><ellipse cx="2.319" cy="2.555" rx="2.319" ry="2.555"/><ellipse cx="0.547" cy="0.649" rx="0.547" ry="0.649" transform="translate(2.828 2.482)" fill="#fff"/></g><path d="M174.559,164.146c-1.029,2.494.574,7.481,3.366,3.8a29.483,29.483,0,0,1,.125-4.7Z" transform="translate(-147.633 -139.373)" fill="#fff" stroke="#000" stroke-linecap="round" stroke-width="1" fill-rule="evenodd"/><g transform="translate(24.48 17.073)"><path d="M163.637,137.354c-1.918.164-3.486,2.444-2.489,4.248,1.321,2.39,4.269-.211,6.1.032,2.113.043,3.844,2.234,5.542.4,1.888-2.045-.813-4.036-2.923-4.926Z" transform="translate(-160.839 -134.458)" fill="#fff" stroke="#231f20" stroke-linecap="round" stroke-width="1" fill-rule="evenodd"/><path d="M176.328,123.26c-.142-3.323,6.193-3.738,6.942-.957s-6.63,3.419-6.942.957Z" transform="translate(-173.771 -120.464)" fill-rule="evenodd"/></g></g></g><rect width="62" height="47" transform="translate(630.449 577.053)" fill="#fff"/><rect width="95" height="1" transform="translate(615.449 577.053)" fill="url(#a)"/></g></svg>