<svg width="1536px" height="1499px" viewBox="0 0 1536 1499" version="1.1" xmlns="http://www.w3.org/2000/svg" xmlns:xlink="http://www.w3.org/1999/xlink">
  <g id="github" fill-rule="nonzero">
    <path d="M768,0 C907.333333,0 1035.83333,34.3333333 1153.5,103 C1271.16667,171.666667 1364.33333,264.833333 1433,382.5 C1501.66667,500.166667 1536,628.666667 1536,768 C1536,935.333333 1487.16667,1085.83333 1389.5,1219.5 C1291.83333,1353.16667 1165.66667,1445.66667 1011,1497 C993,1500.33333 979.666667,1498 971,1490 C962.333333,1482 958,1472 958,1460 C958,1458 958.166667,1432.5 958.5,1383.5 C958.833333,1334.5 959,1289.66667 959,1249 C959,1184.33333 941.666667,1137 907,1107 C945,1103 979.166667,1097 1009.5,1089 C1039.83333,1081 1071.16667,1068 1103.5,1050 C1135.83333,1032 1162.83333,1009.83333 1184.5,983.5 C1206.16667,957.166667 1223.83333,922.166667 1237.5,878.5 C1251.16667,834.833333 1258,784.666667 1258,728 C1258,648.666667 1231.66667,580 1179,522 C1203.66667,461.333333 1201,393.333333 1171,318 C1152.33333,312 1125.33333,315.666667 1090,329 C1054.66667,342.333333 1024,357 998,373 L960,397 C898,379.666667 834,371 768,371 C702,371 638,379.666667 576,397 C565.333333,389.666667 551.166667,380.666667 533.5,370 C515.833333,359.333333 488,346.5 450,331.5 C412,316.5 383.666667,312 365,318 C335,393.333333 332.333333,461.333333 357,522 C304.333333,580 278,648.666667 278,728 C278,784.666667 284.833333,834.666667 298.5,878 C312.166667,921.333333 329.666667,956.333333 351,983 C372.333333,1009.66667 399.166667,1032 431.5,1050 C463.833333,1068 495.166667,1081 525.5,1089 C555.833333,1097 590,1103 628,1107 C602,1131 585.666667,1165.33333 579,1210 C565,1216.66667 550,1221.66667 534,1225 C518,1228.33333 499,1230 477,1230 C455,1230 433.166667,1222.83333 411.5,1208.5 C389.833333,1194.16667 371.333333,1173.33333 356,1146 C343.333333,1124.66667 327.166667,1107.33333 307.5,1094 C287.833333,1080.66667 271.333333,1072.66667 258,1070 L238,1067 C224,1067 214.333333,1068.5 209,1071.5 C203.666667,1074.5 202,1078.33333 204,1083 C206,1087.66667 209,1092.33333 213,1097 C217,1101.66667 221.333333,1105.66667 226,1109 L233,1114 C247.666667,1120.66667 262.166667,1133.33333 276.5,1152 C290.833333,1170.66667 301.333333,1187.66667 308,1203 L318,1226 C326.666667,1251.33333 341.333333,1271.83333 362,1287.5 C382.666667,1303.16667 405,1313.16667 429,1317.5 C453,1321.83333 476.166667,1324.16667 498.5,1324.5 C520.833333,1324.83333 539.333333,1323.66667 554,1321 L577,1317 C577,1342.33333 577.166667,1371.83333 577.5,1405.5 C577.833333,1439.16667 578,1457.33333 578,1460 C578,1472 573.666667,1482 565,1490 C556.333333,1498 543,1500.33333 525,1497 C370.333333,1445.66667 244.166667,1353.16667 146.5,1219.5 C48.8333333,1085.83333 0,935.333333 0,768 C0,628.666667 34.3333333,500.166667 103,382.5 C171.666667,264.833333 264.833333,171.666667 382.5,103 C500.166667,34.3333333 628.666667,0 768,0 Z"></path>
  </g>
</svg>
