
<svg width="195px" height="195px" viewBox="0 0 195 195" version="1.1" xmlns="http://www.w3.org/2000/svg" xmlns:xlink="http://www.w3.org/1999/xlink">
  <g fill-rule="nonzero" fill="#12100E">
    <path d="M0,0 L195,0 L195,195 L0,195 L0,0 Z M46.5340803,65.2157554 L46.5340803,123.115814 C46.8903838,125.204485 46.2319621,127.338076 44.7605042,128.863022 L31,145.55438 L31,147.755438 L70.0186741,147.755438 L70.0186741,145.55438 L56.2581699,128.863022 C54.7759199,127.3406 54.0767278,125.221069 54.3622782,123.115814 L54.3622782,73.0417402 L88.6106443,147.755438 L92.585901,147.755438 L122.002801,73.0417402 L122.002801,132.592593 C122.002801,134.182246 122.002801,134.487948 120.963119,135.527337 L110.38282,145.798942 L110.38282,148 L161.755369,148 L161.755369,145.798942 L151.542017,135.771899 C150.640424,135.084652 150.193188,133.955114 150.380019,132.837155 L150.380019,59.1628454 C150.193188,58.0448862 150.640424,56.9153477 151.542017,56.2281011 L162,46.2010582 L162,44 L125.794585,44 L99.9859944,108.380952 L70.6302521,44 L32.6512605,44 L32.6512605,46.2010582 L44.8828198,60.93592 C46.0836,62.018231 46.6968378,63.6076572 46.5340803,65.2157554 Z"></path>
  </g>
</svg>
